<svg xmlns="http://www.w3.org/2000/svg" viewBox="0 0 393.37 85.04"><defs><style>.cls-1{fill:#fff;}</style></defs><g id="レイヤー_2" data-name="レイヤー 2"><g id="logo"><path class="cls-1" d="M242.19,68a13.71,13.71,0,0,0,13.72-13.71V30.72a8.26,8.26,0,0,1,8.26-8.26h26.61a.38.38,0,0,0,.37-.37V17.37a.37.37,0,0,0-.37-.36H258.72A13.71,13.71,0,0,0,245,30.72v23.6a8.27,8.27,0,0,1-8.27,8.27H210.5a.36.36,0,0,0-.36.36v4.72a.36.36,0,0,0,.36.36Z"/><path class="cls-1" d="M302.12,36.17V17.37a.36.36,0,0,1,.36-.36h72.46a.36.36,0,0,1,.36.36v4.72a.37.37,0,0,1-.36.37H313.38a.36.36,0,0,0-.36.36V35.07A3.91,3.91,0,0,0,316.94,39h45.83a14.52,14.52,0,1,1,0,29H302.48a.36.36,0,0,1-.36-.36V63a.36.36,0,0,1,.36-.36c13.71,0,54.84,0,54.84,0a9.08,9.08,0,1,0-.07-18.15H310.39A8.27,8.27,0,0,1,302.12,36.17Z"/><path class="cls-1" d="M194.54,39a8.27,8.27,0,1,0,0-16.53H139a.37.37,0,0,1-.36-.37V17.37A.36.36,0,0,1,139,17h61a13.72,13.72,0,1,1,0,27.43H157.76a8.27,8.27,0,0,0-8.27,8.27v15a.36.36,0,0,1-.36.36H139a.36.36,0,0,1-.36-.36v-15A13.71,13.71,0,0,1,152.31,39Z"/><path class="cls-1" d="M41.18,0V79.35l18,5.69V18.51c0-3.14,1.4-5.22,3.64-4.5,2.93.81,3.5,3.7,3.5,6.8V47.38c11.18,5.41,20,0,20-14.28,0-14.6-5.16-21.1-20.35-26.33A219.24,219.24,0,0,0,41.18,0"/><path class="cls-1" d="M62.57,73.44,91.42,63.17c3.27-1.21,3.77-2.85,1.12-3.72s-7.47-.63-10.77.56l-19.2,6.77V56l1.1-.36a65.31,65.31,0,0,1,13.38-2.82,57.33,57.33,0,0,1,24.89,3c8.48,2.69,9.43,6.62,7.28,9.35s-7.45,4.66-7.45,4.66L62.57,83.83Z"/><path class="cls-1" d="M8.27,72.35C-.42,69.92-1.87,64.81,2.09,61.86,5.75,59.16,12,57.13,12,57.13L37.71,48V58.4L19.21,65c-3.28,1.17-3.77,2.82-1.13,3.69s7.46.65,10.74-.56L37.71,65v9.33l-1.79.29A57.71,57.71,0,0,1,8.27,72.35Z"/><path class="cls-1" d="M103.13,76.54a4.25,4.25,0,1,1-4.27,4.25A4.11,4.11,0,0,1,103.13,76.54Zm0,7.87a3.62,3.62,0,1,0-3.59-3.62A3.49,3.49,0,0,0,103.13,84.41Zm-1.68-6.09h1.94c.9,0,1.57.26,1.57,1.27a1.16,1.16,0,0,1-.91,1.2v0c.32.08.55.32.71.89s.34,1.07.48,1.54h-.9c-.13-.37-.29-1-.39-1.34-.14-.57-.3-.75-1-.75h-.58v2.09h-.88Zm.88,2.2h.78c.62,0,1-.24,1-.81s-.46-.77-.94-.77h-.84Z"/><path class="cls-1" d="M384.67,62.94H383v-.58H387v.58h-1.67V68h-.69Z"/><path class="cls-1" d="M390.58,67.4h0l1.6-5h1.18V68h-.66V62.89h0L391,68h-.87l-1.63-5.14h0V68h-.65V62.36H389Z"/></g></g></svg>