<svg xmlns="http://www.w3.org/2000/svg" viewBox="0 0 187.34 46.91"><defs><style>.a{fill:#fff;}</style></defs><path class="a" d="M105.66,9.7A11.85,11.85,0,0,0,105,5.78a8.91,8.91,0,0,0-1.86-3.12,8.14,8.14,0,0,0-2.89-2,10.5,10.5,0,0,0-7.38,0,7.9,7.9,0,0,0-2.87,2,8.81,8.81,0,0,0-1.88,3.12,11.6,11.6,0,0,0-.63,3.92,11.53,11.53,0,0,0,.63,3.93A8.51,8.51,0,0,0,90,16.72a7.83,7.83,0,0,0,2.87,2,10.35,10.35,0,0,0,7.38,0,8.07,8.07,0,0,0,2.89-2,8.82,8.82,0,0,0,1.86-3.1A11.77,11.77,0,0,0,105.66,9.7Zm-4.6,5.21h0a6.07,6.07,0,0,1-8.9,0A7.63,7.63,0,0,1,90.47,9.7a7.77,7.77,0,0,1,1.69-5.23,6.12,6.12,0,0,1,8.9,0,7.76,7.76,0,0,1,1.66,5.23A7.65,7.65,0,0,1,101.06,14.91ZM85.77,11a5,5,0,0,0-2.35-1.75,4.33,4.33,0,0,0,2.41-4,4.48,4.48,0,0,0-1.51-3.51A6.29,6.29,0,0,0,80,.42H71.66V8.35H69.24l-1.72,2.37h4.14V19h8.71A6.8,6.8,0,0,0,85,17.58a4.9,4.9,0,0,0,1.61-3.87A4.56,4.56,0,0,0,85.77,11ZM74.49,2.86h5.33a3.68,3.68,0,0,1,2.39.7A2.39,2.39,0,0,1,83,5.49a2.72,2.72,0,0,1-.8,2.14,3.53,3.53,0,0,1-2.42.72H74.49Zm8.33,12.93a4,4,0,0,1-2.61.75H74.49V10.72h5.72a4.11,4.11,0,0,1,2.64.73,2.74,2.74,0,0,1,.87,2.21A2.6,2.6,0,0,1,82.82,15.79ZM36.61,39.1a22.06,22.06,0,0,1-29.06,0C4.1,35.59,15.4,23.17,22,18.15a.08.08,0,0,1,.07,0,.13.13,0,0,1,.07,0C28.75,23.17,40.06,35.59,36.61,39.1ZM4.66,35.78s0,.09,0,.11-.09,0-.12,0a22.08,22.08,0,0,1,2-29l.09-.07C7,6.55,9.28,5.83,16,12.53a.11.11,0,0,1,0,.08.09.09,0,0,1,0,.06C11.58,18,3,30.58,4.66,35.78Zm33-29a22.07,22.07,0,0,1,2,29.05.08.08,0,0,1-.11,0s0-.07,0-.11c1.68-5.2-6.92-17.82-11.37-23.11,0,0,0,0,0-.06a.12.12,0,0,1,0-.08c6.74-6.7,9-6,9.39-5.79ZM113,11.5,107.6,19h-3.16l7-9.67L105,.42h3.16L113,7.15,117.93.42h3.17l-6.48,8.9,7,9.67h-3.17ZM10.54,3.74a.09.09,0,0,1,0-.11,22.09,22.09,0,0,1,23,0,.09.09,0,0,1,0,.11.09.09,0,0,1-.11,0c-4.27-.92-10.77,2.77-11.38,3.14l-.05,0,0,0c-.61-.37-7.11-4.06-11.38-3.14A.09.09,0,0,1,10.54,3.74ZM63.15,9.32l7,9.67H67L61.57,11.5,56.13,19H53l7-9.67L53.52.42h3.16l4.89,6.73L66.46.42h3.16ZM70.29,26H83.56v2.55H73.13v5.38h9.23v2.37H73.13V42H83.56v2.55H70.29ZM68,39.43a4.91,4.91,0,0,1-1.92,4.08A8.49,8.49,0,0,1,60.77,45,8.87,8.87,0,0,1,55,43.33,6,6,0,0,1,53,38.44v0H55.8v0a3.9,3.9,0,0,0,1.29,3.1,5.78,5.78,0,0,0,3.73,1A5.41,5.41,0,0,0,64,41.79a2.66,2.66,0,0,0,1.09-2.28,2.16,2.16,0,0,0-.9-1.86,9.26,9.26,0,0,0-3.27-1.18l-1.58-.34A9.07,9.07,0,0,1,55,34.25a4.59,4.59,0,0,1-1.47-3.61A4.44,4.44,0,0,1,55.29,27a7.75,7.75,0,0,1,4.8-1.37,8.35,8.35,0,0,1,5.5,1.57,5.52,5.52,0,0,1,1.89,4.31v0H64.67v0a3.56,3.56,0,0,0-1.17-2.63A5.5,5.5,0,0,0,60.12,28a4.8,4.8,0,0,0-2.77.67,2.19,2.19,0,0,0-1,1.9,2.24,2.24,0,0,0,.85,1.9,7.76,7.76,0,0,0,3.16,1.19L62,34a9.91,9.91,0,0,1,4.58,2A4.46,4.46,0,0,1,68,39.43Zm32.63,2.86-.18-2.88a4.7,4.7,0,0,0-.69-2.48,3.41,3.41,0,0,0-1.9-1.3,4.28,4.28,0,0,0,2.23-1.6,4.86,4.86,0,0,0,.82-2.87,4.58,4.58,0,0,0-1.71-3.78A7.33,7.33,0,0,0,94.51,26H86.4V44.58h2.83V37h5.36a3.13,3.13,0,0,1,2.32.74,3.75,3.75,0,0,1,.8,2.51l.08,2a4.39,4.39,0,0,0,.55,2.38h2.93l0,0A5.24,5.24,0,0,1,100.63,42.29Zm-3.55-8.52a3.6,3.6,0,0,1-2.51.82H89.23V28.46h5.13a4.27,4.27,0,0,1,2.7.75A2.67,2.67,0,0,1,98,31.42,3,3,0,0,1,97.08,33.77Zm90.26,5.66a4.89,4.89,0,0,1-1.92,4.08A8.49,8.49,0,0,1,180.11,45a8.87,8.87,0,0,1-5.73-1.67,6,6,0,0,1-2.07-4.89v0h2.83v0a3.9,3.9,0,0,0,1.29,3.1,5.78,5.78,0,0,0,3.73,1,5.41,5.41,0,0,0,3.15-.79,2.66,2.66,0,0,0,1.09-2.28,2.16,2.16,0,0,0-.9-1.86,9.26,9.26,0,0,0-3.27-1.18l-1.58-.34a9.12,9.12,0,0,1-4.33-1.88,4.62,4.62,0,0,1-1.47-3.61A4.41,4.41,0,0,1,174.63,27a7.71,7.71,0,0,1,4.8-1.38,8.33,8.33,0,0,1,5.5,1.57,5.52,5.52,0,0,1,1.89,4.31v0H184v0a3.53,3.53,0,0,0-1.17-2.63,5.5,5.5,0,0,0-3.38-.83,4.8,4.8,0,0,0-2.77.67,2.19,2.19,0,0,0-.95,1.9,2.24,2.24,0,0,0,.85,1.9,7.76,7.76,0,0,0,3.16,1.19l1.61.34a9.86,9.86,0,0,1,4.58,2A4.46,4.46,0,0,1,187.34,39.43Zm-32.58-4.51,7,9.66h-3.16l-5.44-7.49-5.44,7.49h-3.16l7-9.66L145.13,26h3.16l4.89,6.73L158.07,26h3.16Zm11.57-11.23h1.42V46.91h-1.42ZM103.48,26h2.84V44.58h-2.84Zm35.46,13.42A4.89,4.89,0,0,1,137,43.51,8.49,8.49,0,0,1,131.71,45,8.87,8.87,0,0,1,126,43.33a6,6,0,0,1-2.07-4.89v0h2.83v0a3.9,3.9,0,0,0,1.29,3.1,5.78,5.78,0,0,0,3.73,1,5.41,5.41,0,0,0,3.15-.79A2.66,2.66,0,0,0,136,39.51a2.16,2.16,0,0,0-.9-1.86,9.26,9.26,0,0,0-3.27-1.18l-1.58-.34a9.07,9.07,0,0,1-4.33-1.88,4.59,4.59,0,0,1-1.47-3.61A4.44,4.44,0,0,1,126.23,27a7.77,7.77,0,0,1,4.8-1.37,8.35,8.35,0,0,1,5.5,1.57,5.52,5.52,0,0,1,1.89,4.31v0h-2.81v0a3.56,3.56,0,0,0-1.17-2.63,5.5,5.5,0,0,0-3.38-.83,4.8,4.8,0,0,0-2.77.67,2.19,2.19,0,0,0-.95,1.9,2.24,2.24,0,0,0,.85,1.9,7.76,7.76,0,0,0,3.16,1.19L133,34a9.91,9.91,0,0,1,4.58,2A4.46,4.46,0,0,1,138.94,39.43ZM109.15,26h13.27v2.55H112v5.38h9.23v2.37H112V42h10.43v2.55H109.15Z"/></svg>